<svg xmlns="http://www.w3.org/2000/svg" width="180" height="33" viewBox="0 0 180 33" fill="none">
<path fill-rule="evenodd" clip-rule="evenodd" d="M43.0406 4.5763C52.986 4.5763 56.57 13.0371 56.57 18.5335C56.57 24.6327 52.9932 32.3353 43.0406 32.3353C33.0951 32.3353 29.2191 24.0879 29.2191 18.5739C29.2191 13.0877 33.0879 4.5763 43.0406 4.5763ZM169.407 4.5904C177.96 4.5904 179.995 8.70352 179.995 13.3109L180 32.3108H173.353L173.35 28.9733C171.553 31.092 167.021 32.2969 164.333 32.2969C158.563 32.2969 156.185 29.3561 156.185 24.6528C156.185 16.3493 168.75 14.7848 173.358 14.5024L173.363 13.101C173.363 9.31928 171.167 8.04774 168.924 7.91012C167.335 7.81277 163.234 7.91051 162.067 12.1178C161.973 12.4554 161.94 12.8891 161.927 13.2987H158.576C158.576 10.7999 159.681 8.71923 160.461 7.86379C162.953 5.13044 166.371 4.5904 169.407 4.5904ZM100.197 4.59553C107.031 4.59553 111.678 9.22237 112.155 16.3657L112.186 16.9102H94.9733L94.9666 18.3649L94.9933 20.2549C94.9933 24.9803 96.7978 28.975 100.861 28.975C104.522 28.975 107.399 27.6536 108.848 23.9288H111.329C109.872 28.9258 105.61 32.308 100.457 32.308C93.4789 32.308 87.3204 25.7906 87.3204 18.4853C87.3204 11.0729 93.2814 4.59553 100.197 4.59553ZM128.463 4.54767C133.454 4.54767 136.248 5.91066 138.235 7.87169V13.2982H134.867V8.95176C131.968 7.6684 130.572 7.84725 129.243 7.86457C124.672 7.9262 121.543 10.4336 121.36 17.7409C121.2 24.1178 124.179 28.9722 128.243 28.9722C131.902 28.9722 134.778 27.6544 136.227 23.9287H138.71C137.251 28.9263 132.99 32.3079 127.838 32.3079C120.86 32.3079 114.702 25.7905 114.702 18.4853C114.702 11.0728 120.519 4.54767 128.463 4.54767ZM150.078 0V4.55353H155.992V7.89244H150.078L150.078 25.7446C150.146 29.5698 153.371 29.2684 155.248 28.5357L155.244 31.3414C155.244 31.3414 154.374 31.7188 153.726 31.8605C148.195 33.0892 143.45 31.9678 143.45 25.5991V7.89244H139.769V4.55353H143.45V2.29214L150.078 0ZM75.8325 4.54888C81.3462 4.54888 84.2662 7.1763 84.2662 12.7907V32.2879H77.6164V13.0696C77.6164 10.1464 77.0869 7.86658 73.9582 7.86658C69.5161 7.86658 67.1 12.026 67.1 16.8082V32.2879H60.4495V7.87008H55.8707V4.55318H67.1V8.91726C69.01 6.24325 72.0252 4.54888 75.8325 4.54888ZM10.7005 0.0106081V13.2755H14.2291L21.5943 0.0106081H27.5901V3.32669H24.0431L18.8246 12.6501L29.8224 32.2878H21.9266L13.1682 16.887H10.7005V32.2878H4.07348V3.32669H0V0.0106081H10.7005ZM43.0406 7.8936C37.4183 7.8936 36.2482 13.081 36.4346 18.8269C36.6197 24.5256 37.5345 29.0019 43.1435 29.0019C48.7553 29.0019 49.5337 24.2185 49.5337 18.4731C49.5337 12.7782 48.6568 7.8936 43.0406 7.8936ZM173.362 16.9149C173.362 16.9149 162.985 17.3859 162.985 24.5492C162.985 27.8732 164.158 28.9788 166.403 28.9788C170.83 28.9788 173.361 25.3696 173.361 18.1648L173.362 16.9149ZM99.7533 7.87241C96.2165 7.87241 95.0111 10.3003 94.9677 13.2983H104.505C104.358 10.2093 102.957 7.87241 99.7533 7.87241Z" fill="white"/>
<script xmlns=""/></svg>